<svg xmlns="http://www.w3.org/2000/svg" viewBox="0 0 1133.9 1133.9"><path fill="#004F9F" d="M589.6 204.1L204.1 566.9l408.2 362.9 317.5-317.5"/><path fill="#378DCC" d="M204.1 566.9l362.8-249.4 362.9 294.8-317.5 317.5"/><path fill="#71CBF4" d="M929.8 612.3L544.3 408.2 204.1 566.9l408.2 362.9"/><g><g fill="#FFF"><path d="M380.7 655.5h-23.6l-39.6-110.9h27.4l24.1 78.3 23.9-78.3h27.9l-40.1 110.9zM492.3 579.1v76.4H468v-10.8c-3.6 7-13.5 12.7-23.3 12.7-22 0-37.2-17.3-37.2-40.1s15.2-40.1 37.2-40.1c9.8 0 19.7 5.9 23.3 12.8v-10.9h24.3zM468 617.3c0-10.5-7.3-19.5-18.2-19.5-10.9 0-18.2 9-18.2 19.5 0 10.6 7.3 19.5 18.2 19.5 10.9 0 18.2-8.9 18.2-19.5zM501 579.1h24.2v11.1c4.3-8.2 13.2-13 25-13 9.8 0 17.3 3.3 21.4 8.7 4.8 5.9 6 13.3 6 24.2v45.3h-24.2v-39.1c0-10.9-3.3-18.5-13.5-18.5-9.8 0-14.7 7.6-14.7 19.3v38.4H501v-76.4zM637.8 655.5c-3.6.6-9 1.3-16.2 1.3-11.4 0-27.1-1.4-27.1-26.9v-32.6h-12v-18.1h12v-22.7h24.1v22.7H636v18.1h-17.4v27.3c0 11.3 4.4 13 10.5 13 3 0 6.5-.2 8.7-.5v18.4zM725.3 579.1v76.4H701v-10.8c-3.6 7-13.5 12.7-23.3 12.7-22 0-37.2-17.3-37.2-40.1s15.2-40.1 37.2-40.1c9.8 0 19.7 5.9 23.3 12.8v-10.9h24.3zM701 617.3c0-10.5-7.3-19.5-18.2-19.5-10.9 0-18.2 9-18.2 19.5 0 10.6 7.3 19.5 18.2 19.5 10.9 0 18.2-8.9 18.2-19.5zM816.4 579.1v76.4h-24.2v-10.8c-3.6 7-13.5 12.7-23.3 12.7-22 0-37.2-17.3-37.2-40.1s15.2-40.1 37.2-40.1c9.8 0 19.7 5.9 23.3 12.8v-10.9h24.2zm-24.3 38.2c0-10.5-7.3-19.5-18.2-19.5-10.9 0-18.2 9-18.2 19.5 0 10.6 7.3 19.5 18.2 19.5 10.9 0 18.2-8.9 18.2-19.5z"/></g></g></svg>