<?xml version="1.0" encoding="utf-8"?>
<!-- Generator: Adobe Illustrator 19.1.0, SVG Export Plug-In . SVG Version: 6.00 Build 0)  -->
<!DOCTYPE svg PUBLIC "-//W3C//DTD SVG 1.1//EN" "http://www.w3.org/Graphics/SVG/1.1/DTD/svg11.dtd">
<svg version="1.1" id="Layer_1" xmlns="http://www.w3.org/2000/svg" xmlns:xlink="http://www.w3.org/1999/xlink" x="0px" y="0px"
	 viewBox="0 0 1133.9 1133.9" enable-background="new 0 0 1133.9 1133.9" xml:space="preserve">
<g>
	<g>
		<polygon points="542.1,412.9 204.1,566.9 612.3,929.8 929.8,612.3 		"/>
		<polygon points="242,527.8 566.2,306.9 904.9,579.6 589.6,204.1 		"/>
		<polygon points="242.9,539.8 542.4,401.3 901.4,589.6 565.7,319.9 		"/>
	</g>
	<g>
		<g>
			<path fill="#FFFFFF" d="M380.7,655.5h-23.6l-39.6-110.9h27.4l24.1,78.3l23.9-78.3h27.9L380.7,655.5z"/>
			<path fill="#FFFFFF" d="M492.3,579.1v76.4H468v-10.8c-3.6,7-13.5,12.7-23.3,12.7c-22,0-37.2-17.3-37.2-40.1s15.2-40.1,37.2-40.1
				c9.8,0,19.7,5.9,23.3,12.8v-10.9H492.3z M468,617.3c0-10.5-7.3-19.5-18.2-19.5c-10.9,0-18.2,9-18.2,19.5
				c0,10.6,7.3,19.5,18.2,19.5C460.7,636.8,468,627.9,468,617.3z"/>
			<path fill="#FFFFFF" d="M501,579.1h24.2v11.1c4.3-8.2,13.2-13,25-13c9.8,0,17.3,3.3,21.4,8.7c4.8,5.9,6,13.3,6,24.2v45.3h-24.2
				v-39.1c0-10.9-3.3-18.5-13.5-18.5c-9.8,0-14.7,7.6-14.7,19.3v38.4H501V579.1z"/>
			<path fill="#FFFFFF" d="M637.8,655.5c-3.6,0.6-9,1.3-16.2,1.3c-11.4,0-27.1-1.4-27.1-26.9v-32.6h-12v-18.1h12v-22.7h24.1v22.7
				H636v18.1h-17.4v27.3c0,11.3,4.4,13,10.5,13c3,0,6.5-0.2,8.7-0.5V655.5z"/>
			<path fill="#FFFFFF" d="M725.3,579.1v76.4H701v-10.8c-3.6,7-13.5,12.7-23.3,12.7c-22,0-37.2-17.3-37.2-40.1s15.2-40.1,37.2-40.1
				c9.8,0,19.7,5.9,23.3,12.8v-10.9H725.3z M701,617.3c0-10.5-7.3-19.5-18.2-19.5c-10.9,0-18.2,9-18.2,19.5
				c0,10.6,7.3,19.5,18.2,19.5C693.7,636.8,701,627.9,701,617.3z"/>
			<path fill="#FFFFFF" d="M816.4,579.1v76.4h-24.2v-10.8c-3.6,7-13.5,12.7-23.3,12.7c-22,0-37.2-17.3-37.2-40.1
				s15.2-40.1,37.2-40.1c9.8,0,19.7,5.9,23.3,12.8v-10.9H816.4z M792.1,617.3c0-10.5-7.3-19.5-18.2-19.5c-10.9,0-18.2,9-18.2,19.5
				c0,10.6,7.3,19.5,18.2,19.5C784.8,636.8,792.1,627.9,792.1,617.3z"/>
		</g>
	</g>
</g>
</svg>
